<svg width="12" height="12" viewBox="0 0 12 12" fill="none" xmlns="http://www.w3.org/2000/svg">
<g clip-path="url(#clip0_15_19073)">
<path d="M10.1945 1.65C10.0707 1.31328 9.84671 1.02255 9.55271 0.816953C9.2587 0.611353 8.90877 0.50074 8.55 0.500001H3.45C3.09457 0.499723 2.74751 0.6079 2.45518 0.810083C2.16285 1.01227 1.93916 1.29883 1.814 1.6315L0.734502 4.35C0.247827 5.685 -0.000777751 7.09506 1.82778e-06 8.516V10H1.5V11.5H3.5V10H8.5V11.5H10.5V10H12V8.516C12.0003 7.08744 11.7491 5.66999 11.258 4.3285L10.1945 1.65ZM8.5 7.75C8.5 7.55109 8.57902 7.36032 8.71967 7.21967C8.86033 7.07902 9.05109 7 9.25 7C9.44892 7 9.63968 7.07902 9.78033 7.21967C9.92099 7.36032 10 7.55109 10 7.75C10 7.94891 9.92099 8.13968 9.78033 8.28033C9.63968 8.42098 9.44892 8.5 9.25 8.5C9.05109 8.5 8.86033 8.42098 8.71967 8.28033C8.57902 8.13968 8.5 7.94891 8.5 7.75ZM2.1355 4.8825L3.216 2.1645C3.23349 2.11644 3.26531 2.07489 3.30715 2.04548C3.349 2.01606 3.39885 2.00019 3.45 2H8.55C8.60476 2.00136 8.65768 2.01998 8.70123 2.05321C8.74478 2.08643 8.77672 2.13255 8.7925 2.185L9.8565 4.862C9.933 5.0725 9.999 5.2855 10.0595 5.5H1.939C2 5.292 2.062 5.0855 2.1355 4.8825ZM2.75 8.5C2.55109 8.5 2.36032 8.42098 2.21967 8.28033C2.07902 8.13968 2 7.94891 2 7.75C2 7.55109 2.07902 7.36032 2.21967 7.21967C2.36032 7.07902 2.55109 7 2.75 7C2.94891 7 3.13968 7.07902 3.28033 7.21967C3.42098 7.36032 3.5 7.55109 3.5 7.75C3.5 7.94891 3.42098 8.13968 3.28033 8.28033C3.13968 8.42098 2.94891 8.5 2.75 8.5Z" fill="#667085"/>
</g>
<defs>
<clipPath id="clip0_15_19073">
<rect width="12" height="12" fill="white"/>
</clipPath>
</defs>
</svg>
