<svg width="935" height="714" viewBox="0 0 935 714" fill="none" xmlns="http://www.w3.org/2000/svg">
<path opacity="0.2" d="M164.09 286.82C251.85 286.82 326.985 340.98 358.009 417.756H359C327.718 335.467 248.227 277 155.104 277C34.648 277 -63 374.826 -63 495.5C-63 616.174 34.648 714 155.104 714C241.28 714 315.783 663.931 351.207 591.247H350.56C315.999 659.242 245.474 705.818 164.09 705.818C48.5969 705.818 -45.0289 612.021 -45.0289 496.318C-45.0289 380.616 48.5969 286.82 164.09 286.82Z" fill="white"/>
<path opacity="0.2" d="M342.91 427.18C255.15 427.18 180.015 373.02 148.991 296.243L148 296.243C179.282 378.533 258.773 437 351.896 437C472.352 437 570 339.174 570 218.5C570 97.8257 472.352 -8.53666e-06 351.896 -1.90673e-05C265.72 -2.6601e-05 191.217 50.0688 155.793 122.753L156.44 122.753C191.001 54.7581 261.526 8.18158 342.91 8.18159C458.403 8.1816 552.029 101.979 552.029 217.682C552.029 333.384 458.403 427.18 342.91 427.18Z" fill="white"/>
<path opacity="0.2" d="M667.532 372.798C719.523 372.798 764.034 404.773 782.413 450.101H783C764.468 401.518 717.376 367 662.209 367C590.848 367 533 424.755 533 496C533 567.245 590.848 625 662.209 625C713.261 625 757.397 595.44 778.383 552.528H778C757.526 592.671 715.745 620.17 667.532 620.17C599.112 620.17 543.646 564.793 543.646 496.483C543.646 428.174 599.112 372.798 667.532 372.798Z" fill="white"/>
<path opacity="0.2" d="M840.29 491.933C803.688 491.933 772.352 469.5 759.413 437.7L759 437.7C772.046 471.784 805.199 496 844.037 496C894.275 496 935 455.482 935 405.5C935 355.518 894.275 315 844.037 315C808.097 315 777.024 335.738 762.25 365.843L762.52 365.843C776.934 337.68 806.347 318.389 840.29 318.389C888.457 318.389 927.505 357.239 927.505 405.161C927.505 453.084 888.457 491.933 840.29 491.933Z" fill="white"/>
</svg>
