<svg width="743" height="169" viewBox="0 0 743 169" fill="none" xmlns="http://www.w3.org/2000/svg">
<path d="M420.571 124.281H358.065V47.0508H419.411V49.9196H363.868V80.866H416.592V83.7349H363.868V121.412H420.571V124.281Z" fill="#F37D40"/>
<path d="M460.254 125.375C439.197 125.375 427.094 119.087 426.154 103.309L431.736 101.048C431.847 117.212 441.795 122.948 460.254 122.948C476.724 122.948 485.732 118.425 485.732 109.984C485.732 101.875 475.397 99.7788 464.067 97.9582L452.738 96.1387C441.463 94.3181 428.585 91.4492 428.585 81.2989C428.585 71.0388 439.363 65.2461 458.153 65.2461C477.829 65.2461 489.048 72.1968 489.49 85.9323L483.963 87.9738C484.073 73.8515 474.9 67.6732 458.153 67.6732C442.071 67.6732 433.393 71.921 433.393 79.9749C433.393 87.2014 442.568 89.2978 453.898 91.1185L465.228 92.9391C476.557 94.7586 490.817 97.6275 490.817 108.826C490.817 119.749 480.039 125.375 460.254 125.375Z" fill="#F37D40"/>
<path d="M525.965 125.267C514.084 125.267 508.059 119.971 508.059 110.096V69.2194H493.911V66.3505H508.059V53.0006L513.586 49.7461V66.3505H546.138V69.2194H513.586V109.103C513.586 117.708 518.173 122.067 527.237 122.067C533.426 122.067 539.506 119.805 544.646 115.447L544.812 117.874C540.114 122.784 533.538 125.267 525.965 125.267Z" fill="#F37D40"/>
<path d="M571.783 125.375C558.574 125.375 551.168 120.907 551.168 112.137V111.916C551.168 101.545 561.447 97.6275 583.666 94.3181L605.883 91.0075V85.105C605.883 72.6935 598.421 67.6732 582.892 67.6732C565.703 67.6732 556.75 74.2383 557.634 88.1398L552.107 85.9884C551.445 72.4726 562.497 65.2461 582.892 65.2461C602.124 65.2461 611.41 71.7002 611.41 84.9951V117.488C611.41 122.673 614.615 123.003 620.307 120.687L619.976 122.948C618.152 124.603 616.107 125.375 613.454 125.375C605.938 125.375 604.39 120.797 606.878 108.605L605.716 108.22C600.577 118.866 586.76 125.375 571.783 125.375ZM574.27 122.452C590.131 122.452 605.883 113.129 605.883 98.7306V93.6006L585.047 96.6903C564.211 99.7788 557.082 103.53 557.082 111.308V111.529C557.082 118.646 563.05 122.452 574.27 122.452Z" fill="#F37D40"/>
<path d="M649.322 125.267C637.439 125.267 631.416 119.971 631.416 110.096V69.2194H617.268V66.3505H631.416V53.0006L636.942 49.7461V66.3505H669.494V69.2194H636.942V109.103C636.942 117.708 641.53 122.067 650.594 122.067C656.783 122.067 662.863 119.805 668.003 115.447L668.168 117.874C663.471 122.784 656.893 125.267 649.322 125.267Z" fill="#F37D40"/>
<path d="M740.071 105.075L743 105.902C739.297 118.646 727.416 125.375 709.177 125.375C686.407 125.375 672.866 114.783 672.866 95.4212V95.2003C672.866 77.0511 687.015 65.2461 708.514 65.2461C728.521 65.2461 741.895 76.4995 741.895 91.5041C741.895 92.6072 741.84 93.7665 741.674 94.8696H678.615V95.3663C678.615 113.074 689.999 122.452 709.784 122.452C726.144 122.452 736.699 116.77 740.071 105.075ZM708.735 67.6732C690.828 67.6732 679.996 76.4995 678.725 92.0007H736.147V91.7799C736.147 76.7204 726.089 67.6732 708.735 67.6732Z" fill="#F37D40"/>
<path d="M313.909 131.054C283.125 153.54 230.822 168.336 171.478 168.336C76.7735 168.336 0 130.653 0 84.168C0 37.6834 76.7735 0 171.478 0C227.786 0 277.756 13.3212 309.018 33.8928H306.149C276.119 14.6428 229.243 2.26001 176.571 2.26001C85.9306 2.26001 12.4511 38.931 12.4511 84.168C12.4511 129.405 85.9306 166.076 176.571 166.076C232.272 166.076 281.493 152.228 311.163 131.054H313.909Z" fill="#F37D40"/>
<path d="M328.243 118.335C337.7 107.895 342.957 96.3348 342.957 84.1717C342.957 72.0085 337.7 60.4482 328.243 50.0078V52.8218C336.265 62.479 340.693 73.0675 340.693 84.1717C340.693 95.2759 336.265 105.864 328.243 115.522V118.335Z" fill="#F37D40"/>
<path d="M116.68 124.254C93.5778 124.254 80.0921 114.765 77.4392 97.1677L83.3538 94.4648C84.8453 112.89 95.4018 121.716 116.68 121.716C135.249 121.716 145.363 115.704 145.363 104.781C145.363 95.5679 139.781 91.9827 122.593 88.0107L105.626 84.0936C88.5483 80.1777 82.2486 75.2673 82.2486 65.5038C82.2486 52.2089 93.4678 44.8164 113.806 44.8164C135.415 44.8164 147.353 54.802 148.68 72.7852L142.931 75.3783C142.324 56.126 133.094 47.3546 113.806 47.3546C96.1757 47.3546 87.0568 53.312 87.0568 64.2347C87.0568 71.0756 90.2623 74.9915 107.34 78.9086L124.306 82.8257C141.495 86.7977 150.337 91.3762 150.337 103.126C150.337 116.696 137.957 124.254 116.68 124.254Z" fill="#F37D40"/>
<path d="M194.884 124.254C175.098 124.254 159.788 115.759 159.788 94.8517V93.5277C159.788 72.9513 175.098 64.125 194.884 64.125C214.614 64.125 229.922 72.9513 229.922 93.5277V94.8517C229.922 115.759 214.614 124.254 194.884 124.254ZM194.884 121.827C212.016 121.827 224.119 114.38 224.119 94.8517V93.5277C224.119 73.9995 212.016 66.5522 194.884 66.5522C177.695 66.5522 165.592 73.9995 165.592 93.5277V94.8517C165.592 114.38 177.695 121.827 194.884 121.827Z" fill="#F37D40"/>
<path d="M297.458 65.2227H302.985V123.146H296.851C296.851 118.401 297.513 112.775 298.951 105.437L297.79 105.106C293.7 117.629 282.979 124.249 267.67 124.249C250.15 124.249 240.755 116.139 240.755 101.466V65.2227H246.281V100.913C246.281 114.871 253.742 121.159 268.885 121.159C286.958 121.159 297.458 110.788 297.458 92.9145V65.2227Z" fill="#F37D40"/>
<path d="M321.832 123.144H316.305V45.9141H321.832V123.144Z" fill="#F37D40"/>
</svg>
