<svg width="209" height="50" viewBox="0 0 209 50" fill="none" xmlns="http://www.w3.org/2000/svg">
<g clip-path="url(#clip0_3_18129)">
<path d="M103.1 17.3508C99.8798 17.3508 98.0998 15.0508 98.0998 11.0208V10.8008C98.0998 6.8008 100.05 4.41081 103.1 4.41081C105.56 4.41081 106.83 5.63079 107.16 7.98079H111.65C111.598 6.95575 111.33 5.95317 110.865 5.03829C110.4 4.1234 109.747 3.31674 108.95 2.67079C107.231 1.46712 105.166 0.859488 103.07 0.940813C101.804 0.915213 100.545 1.14358 99.3685 1.61247C98.1919 2.08136 97.1213 2.78124 96.2198 3.67079C95.311 4.62374 94.5993 5.74683 94.1257 6.97554C93.652 8.20425 93.4257 9.5144 93.4598 10.8308V11.0508C93.3129 13.6694 94.2081 16.2398 95.9498 18.2008C96.9014 19.1281 98.0358 19.8471 99.2805 20.3119C100.525 20.7768 101.853 20.9773 103.18 20.9008C105.332 20.9946 107.45 20.3449 109.18 19.0608C109.982 18.3945 110.638 17.5704 111.107 16.6397C111.577 15.709 111.85 14.6916 111.91 13.6508H107.6C107.25 16.1308 105.6 17.3508 103.16 17.3508M119.52 1.2408L113.1 20.6008H117.21L118.54 16.3008H125.54L126.87 20.6008H131.45L125.17 1.2408H119.52ZM119.52 13.2408L122.09 4.87081L124.64 13.2408H119.52ZM141.16 1.2408H134.47V20.6008H138.83V13.6008H141.29C143.167 13.7114 145.027 13.1865 146.57 12.1108C147.241 11.5684 147.773 10.8734 148.121 10.0836C148.469 9.29378 148.623 8.43219 148.57 7.57079V7.4608C148.57 3.3408 145.92 1.28081 141.18 1.28081M144.35 7.59081C144.35 9.59081 143.26 10.5908 141.07 10.5908H138.85V4.66081H141.07C143.15 4.66081 144.35 5.47079 144.35 7.54079V7.59081ZM152.2 20.6408H156.62V1.2408H152.2V20.6408ZM175.2 1.28081H160.29V4.69081H165.52V20.6408H169.93V4.6508H175.15L175.2 1.28081ZM181.2 1.28081L174.83 20.6408H178.95L180.28 16.3408H187.28L188.61 20.6408H193.18L186.91 1.28081H181.2ZM181.2 13.2808L183.77 4.91081L186.31 13.2808H181.2ZM200.53 1.28081H196.15V20.6408H208.41V17.2008H200.53V1.28081ZM103.71 41.2808H108.1C108.109 41.8109 108.014 42.3375 107.818 42.8302C107.622 43.3229 107.33 43.7718 106.96 44.1508C106.487 44.5806 105.933 44.9102 105.33 45.1199C104.726 45.3296 104.087 45.4149 103.45 45.3708C102.666 45.4296 101.88 45.2953 101.16 44.9798C100.44 44.6642 99.8079 44.177 99.3198 43.5608C98.4088 42.202 97.9632 40.5844 98.0498 38.9508V38.7108C98.0498 34.7108 99.9998 32.2308 103.39 32.2308C105.74 32.2308 107.18 33.2308 107.58 35.5408H111.94C111.879 34.5162 111.59 33.518 111.096 32.6186C110.601 31.7193 109.912 30.9412 109.08 30.3408C107.366 29.2181 105.348 28.6491 103.3 28.7108C101.998 28.6837 100.703 28.9136 99.4901 29.3872C98.277 29.8607 97.1691 30.5688 96.2298 31.4708C95.3117 32.4098 94.5923 33.5243 94.1146 34.7477C93.637 35.971 93.4108 37.2781 93.4498 38.5908V38.8108C93.3906 40.0997 93.5862 41.3876 94.0255 42.6008C94.4648 43.814 95.1391 44.9286 96.0098 45.8808C96.9605 46.8346 98.1002 47.5791 99.3556 48.0665C100.611 48.5538 101.955 48.7733 103.3 48.7108C105.766 48.8372 108.183 47.9814 110.02 46.3308C110.82 45.5092 111.444 44.5328 111.853 43.4615C112.262 42.3902 112.448 41.2466 112.4 40.1008V38.0408H103.71V41.2808ZM129.17 38.5008C129.962 37.5422 130.368 36.3229 130.31 35.0808V34.9708C130.361 34.1241 130.205 33.2777 129.857 32.5044C129.509 31.731 128.978 31.0537 128.31 30.5308C126.697 29.4817 124.79 28.977 122.87 29.0908H115.9V48.4108H120.26V40.9308H122.15L126.78 48.4108H131.44L126.32 40.1808C127.414 39.885 128.402 39.2851 129.17 38.4508M126.03 35.1708C126.03 37.0108 124.92 37.9608 122.72 37.9608H120.26V32.4108H122.72C124.86 32.4108 126.03 33.0808 126.03 35.0608V35.1708ZM143.11 28.7708C140.463 28.7154 137.903 29.7115 135.99 31.5408C135.056 32.4646 134.321 33.5708 133.833 34.7905C133.344 36.0103 133.112 37.3174 133.15 38.6308V38.8508C133.092 40.1687 133.311 41.484 133.792 42.7124C134.273 43.9408 135.005 45.055 135.942 45.9835C136.879 46.9121 138 47.6343 139.232 48.104C140.465 48.5737 141.782 48.7804 143.1 48.7108C144.431 48.7798 145.762 48.5684 147.007 48.0903C148.251 47.6121 149.381 46.8779 150.324 45.9352C151.267 44.9925 152.001 43.8623 152.479 42.6178C152.957 41.3733 153.169 40.0422 153.1 38.7108V38.5008C153.134 37.1944 152.903 35.8947 152.422 34.6797C151.941 33.4647 151.219 32.3596 150.3 31.4308C148.358 29.623 145.781 28.6561 143.13 28.7408M148.52 38.7408C148.588 40.4117 148.083 42.0557 147.09 43.4008C146.598 43.9485 145.997 44.3865 145.325 44.6863C144.653 44.9862 143.926 45.1411 143.19 45.1411C142.454 45.1411 141.726 44.9862 141.054 44.6863C140.382 44.3865 139.781 43.9485 139.29 43.4008C138.213 42.0934 137.661 40.4326 137.74 38.7408V38.5308C137.646 36.8551 138.157 35.2013 139.18 33.8708C139.669 33.3096 140.278 32.8649 140.961 32.569C141.645 32.2732 142.386 32.1337 143.13 32.1608C143.886 32.1322 144.639 32.2758 145.332 32.5807C146.025 32.8856 146.64 33.3438 147.13 33.9208C148.099 35.2462 148.592 36.86 148.53 38.5008L148.52 38.7408ZM168.18 40.3608C168.18 43.9108 167.05 45.1508 164.44 45.1508C161.83 45.1508 160.85 43.7708 160.85 40.5208V29.0408H156.43V40.8508C156.43 46.0308 159.3 48.7108 164.43 48.7108C169.7 48.7108 172.61 46.0008 172.61 40.7108V29.0408H168.19L168.18 40.3608ZM183.62 28.9808H176.93V48.4108H181.29V41.3608H183.76C185.635 41.4666 187.493 40.946 189.04 39.8808C189.71 39.3353 190.241 38.6382 190.589 37.8471C190.936 37.0559 191.091 36.1935 191.04 35.3308V35.2208C191.04 31.1008 188.38 29.0408 183.64 29.0408M186.81 35.3608C186.81 37.3608 185.72 38.3608 183.54 38.3608H181.31V32.4308H183.54C185.62 32.4308 186.81 33.2408 186.81 35.3008V35.3608Z" fill="#0060A7"/>
<path d="M26.22 38.23C29.0916 38.3405 31.9145 37.4654 34.22 35.75C35.2967 34.8524 36.1773 33.7429 36.8069 32.4905C37.4366 31.2381 37.8018 29.8696 37.88 28.47H32.11C31.63 31.82 29.38 33.47 26.11 33.47C21.78 33.47 19.34 30.38 19.34 24.96V24.71C19.34 19.29 21.95 16.13 26.07 16.13C29.38 16.13 31.07 17.76 31.53 20.93H37.53C37.4828 19.5459 37.144 18.1873 36.5357 16.9432C35.9274 15.699 35.0633 14.5973 34 13.71C31.4119 11.983 28.3179 11.177 25.2161 11.4219C22.1143 11.6668 19.1851 12.9482 16.9 15.06C15.6744 16.3331 14.715 17.8379 14.078 19.4863C13.441 21.1346 13.1391 22.8935 13.19 24.66V24.95C13.19 28.95 14.32 32.26 16.54 34.55C18.76 36.84 21.99 38.19 26.25 38.19M54.08 38.19C57.98 38.19 61.08 37.03 63.08 34.99C64.1559 33.8868 64.9948 32.5751 65.5451 31.1357C66.0954 29.6963 66.3455 28.1596 66.28 26.62V23.86H54.6V28.14H60.45C60.4653 28.852 60.3387 29.56 60.0778 30.2227C59.8168 30.8854 59.4267 31.4895 58.93 32C57.4357 33.1889 55.5464 33.7673 53.6426 33.6189C51.7388 33.4704 49.962 32.6061 48.67 31.2C47.4371 29.3835 46.8362 27.2118 46.96 25.02V24.73C46.96 19.38 49.58 16.04 54.13 16.04C57.29 16.04 59.22 17.41 59.76 20.47H65.62C65.5361 19.09 65.1462 17.7459 64.4786 16.5352C63.811 15.3244 62.8823 14.2774 61.76 13.47C59.4613 12.0068 56.7732 11.2747 54.05 11.37C52.3016 11.3315 50.5629 11.6395 48.9341 12.2763C47.3053 12.913 45.8187 13.8659 44.56 15.08C43.3216 16.3396 42.3509 17.8368 41.7064 19.4815C41.0619 21.1262 40.757 22.8843 40.81 24.65V24.94C40.7325 26.671 40.9973 28.4003 41.5894 30.0288C42.1814 31.6573 43.0889 33.1529 44.26 34.43C46.49 36.79 49.8 38.18 54.05 38.18M0 49.65H79.44V0H0V49.65ZM74.48 44.65H5V4.95999H74.51L74.48 44.65Z" fill="#0060A7"/>
</g>
<defs>
<clipPath id="clip0_3_18129">
<rect width="208.31" height="49.65" fill="white"/>
</clipPath>
</defs>
</svg>
