<svg width="178" height="60" viewBox="0 0 178 60" fill="none" xmlns="http://www.w3.org/2000/svg">
<path d="M136.968 35.8208C135.338 37.6046 133.115 38.6451 130.596 38.6451C125.853 38.6451 122 34.7803 122 30.0236C122 25.267 125.853 21.4022 130.596 21.4022C132.522 21.4022 134.152 21.9968 135.634 23.0373L140.376 16.3482C137.709 14.4158 134.3 13.2266 130.744 13.2266C121.556 13.2266 113.998 20.8076 113.998 30.0236C113.998 39.2397 121.556 46.8206 130.744 46.8206C135.041 46.8206 138.894 45.1855 141.858 42.5099L136.968 35.8208Z" fill="black"/>
<path fill-rule="evenodd" clip-rule="evenodd" d="M94.1394 20.806L98.8822 14.2656C105.402 16.4953 109.996 22.7384 109.996 30.0221C109.996 39.2381 102.439 46.8191 93.2502 46.8191V54.4H85.3964V46.8191C76.2082 46.8191 68.6504 39.2381 68.6504 30.0221C68.6504 20.806 76.2082 13.225 85.3964 13.225V5.94141H93.2502V13.225V20.806V39.2381C98.2894 39.2381 102.439 35.076 102.439 30.0221C102.439 25.2654 98.734 21.2519 94.1394 20.806ZM85.3961 20.8047C80.3575 20.8047 76.208 24.9668 76.208 30.0208C76.208 35.0747 80.3575 39.2368 85.3961 39.2368V20.8047Z" fill="black"/>
<path fill-rule="evenodd" clip-rule="evenodd" d="M167.644 13.9648L156.085 30.0186L168.237 46.2211H177.277L164.977 29.87L176.536 13.9648H167.644ZM146.601 46.0724H155.047V13.9648H146.601V46.0724Z" fill="black"/>
<path d="M23.0596 17.5897H56.4672C53.0673 10.0508 46.8588 4.28578 39.0243 1.625L23.0596 17.5897Z" fill="#D7592A"/>
<path d="M58.2415 22.321H17.4429C16.5559 22.321 15.669 21.7298 15.2256 20.8428C14.9299 19.9559 15.0778 18.9211 15.669 18.3298L33.7032 0.295643C32.3728 0.147821 30.8947 0 29.5643 0C13.3039 0 0 13.3039 0 29.5643C0 31.7816 0.295643 33.8511 0.739106 35.9205H41.9813C42.8681 35.9205 43.755 36.5118 44.1985 37.3988C44.4942 38.2857 44.3464 39.3205 43.755 39.9117L24.834 58.6851C26.3122 58.9807 27.9382 59.1284 29.5643 59.1284C45.8246 59.1284 59.1284 45.8246 59.1284 29.5643C59.1284 27.0512 58.8328 24.5383 58.2415 22.321Z" fill="#D7592A"/>
<path d="M36.2157 40.6484H2.2168C5.32105 48.3352 11.6774 54.5437 19.5119 57.3522L36.2157 40.6484Z" fill="#D7592A"/>
</svg>
