<svg width="18" height="18" viewBox="0 0 18 18" fill="none" xmlns="http://www.w3.org/2000/svg">
<path d="M9.26172 1.5C9.57731 1.56311 9.87146 1.70604 10.1161 1.91516C10.3623 2.14039 10.5321 2.43678 10.602 2.76307C10.6719 3.08936 10.6382 3.42931 10.5058 3.7356C10.3734 4.04189 10.1488 4.29928 9.86329 4.47194C9.57776 4.6446 9.24549 4.72394 8.91275 4.69891C8.52874 4.66735 8.16891 4.49865 7.89903 4.22365C7.62915 3.94865 7.46724 3.58572 7.4429 3.20118C7.41857 2.81664 7.53342 2.43619 7.76648 2.12936C7.99953 1.82252 8.33522 1.60981 8.71219 1.53008C8.7362 1.52155 8.75965 1.5115 8.78238 1.5H9.26172Z" fill="#667085"/>
<path d="M10.4029 9.45956C10.4029 9.82056 10.3768 10.1715 10.5493 10.5245C10.8649 11.1076 11.0926 11.7341 11.2252 12.3837C11.3114 12.9032 11.3736 13.4246 11.4438 13.9461C11.514 14.4675 11.5761 14.9609 11.6443 15.4683C11.662 15.6169 11.6431 15.7676 11.5895 15.9074C11.5359 16.0471 11.4491 16.1717 11.3366 16.2704C11.224 16.3691 11.0892 16.439 10.9436 16.474C10.7981 16.5089 10.6462 16.5079 10.5011 16.4711C10.3657 16.441 10.2436 16.3683 10.1526 16.2636C10.0616 16.1589 10.0066 16.0278 9.99574 15.8895C9.91953 15.2878 9.84131 14.6721 9.79518 14.0584C9.73809 13.2706 9.54185 12.4993 9.21557 11.78C9.11328 11.5534 9.02704 11.3227 8.92275 11.068C8.70615 11.7439 8.49757 12.3917 8.29099 13.0395C8.01623 13.8959 7.74748 14.7543 7.4687 15.6107C7.20998 16.3808 6.33153 16.3147 5.98056 15.9396C5.87722 15.8315 5.80715 15.6959 5.77871 15.549C5.75026 15.4022 5.76463 15.2502 5.82011 15.1113C6.32819 13.5309 6.83226 11.9505 7.33232 10.3701C7.36112 10.2779 7.37599 10.1819 7.37644 10.0853C7.37644 9.59193 7.37644 9.10056 7.37644 8.60718V8.46679H7.35238C7.33032 8.50691 7.30625 8.54702 7.28619 8.58713L6.5 10.1475C6.32552 10.4904 6.08485 10.5646 5.72585 10.4263C5.23247 10.2377 5.1362 9.97098 5.37487 9.48363C5.99861 8.20005 6.59828 6.90645 7.19995 5.61284C7.26195 5.45354 7.37322 5.3182 7.51752 5.22657C7.66183 5.13493 7.83164 5.09179 8.00219 5.10342C8.61389 5.10342 9.22359 5.10342 9.83329 5.10342C10.2023 5.10342 10.3848 5.27591 10.3989 5.64092C10.4169 6.16839 10.437 6.69586 10.449 7.22132C10.4474 7.47222 10.5421 7.71418 10.7137 7.89721C11.175 8.39994 11.6343 8.90602 12.0916 9.41544C12.1499 9.46476 12.1967 9.5262 12.2288 9.59548C12.261 9.66475 12.2776 9.74019 12.2776 9.81655C12.2776 9.89292 12.261 9.96836 12.2288 10.0376C12.1967 10.1069 12.1499 10.1683 12.0916 10.2177L12.0114 10.3019C11.9672 10.3597 11.9103 10.4065 11.845 10.4388C11.7798 10.471 11.7081 10.4878 11.6353 10.4878C11.5626 10.4878 11.4908 10.471 11.4256 10.4388C11.3603 10.4065 11.3034 10.3597 11.2593 10.3019C11.0186 10.0532 10.7793 9.80252 10.5413 9.54981C10.5097 9.51324 10.4808 9.47436 10.455 9.43349L10.4029 9.45956Z" fill="#667085"/>
</svg>
