<svg width="20" height="20" viewBox="0 0 20 20" fill="none" xmlns="http://www.w3.org/2000/svg">
<path d="M14.1709 4H1V18H4.66582V13.4453H11.6902L14.8952 18H19L15.4659 13.4244C16.5635 13.2565 17.3537 12.8576 17.8367 12.228C18.3195 11.5983 18.5611 10.5908 18.5611 9.24747V8.19798C18.5611 7.40034 18.4734 6.77069 18.3196 6.28794C18.1659 5.80519 17.9025 5.38535 17.5293 5.00756C17.1342 4.65074 16.6953 4.39888 16.1684 4.23101C15.6415 4.08411 14.9829 4 14.1709 4ZM13.5782 10.36H4.66582V7.08546H13.5782C14.0829 7.08546 14.4342 7.16933 14.6098 7.31635C14.7854 7.46325 14.8952 7.73607 14.8952 8.13495V9.31037C14.8952 9.7301 14.7854 10.0029 14.6098 10.1498C14.4342 10.2967 14.083 10.3597 13.5782 10.3597V10.36Z" stroke="#2A2A2A" stroke-width="2" stroke-linecap="round" stroke-linejoin="round"/>
<path d="M18.491 3.44727C19.181 3.44727 19.7407 2.88764 19.7407 2.19727C19.7407 1.50689 19.181 0.947266 18.491 0.947266C17.8005 0.947266 17.2407 1.50689 17.2407 2.19727C17.2407 2.88764 17.8005 3.44727 18.491 3.44727Z" fill="#2A2A2A"/>
</svg>
